<?xml version="1.0" encoding="iso-8859-1"?>
<!-- Uploaded to: SVG Repo, www.svgrepo.com, Generator: SVG Repo Mixer Tools -->
<svg fill="#000000" height="800px" width="800px" version="1.1" id="Capa_1" xmlns="http://www.w3.org/2000/svg" xmlns:xlink="http://www.w3.org/1999/xlink" 
	 viewBox="0 0 55 55" xml:space="preserve">
<g>
	<path d="M52,52V29v-5h1.01v-2H51h-6.396l-4.975-9.465C39.457,12.206,39.116,12,38.744,12H33V2c0-0.553-0.448-1-1-1h-9
		c-0.552,0-1,0.447-1,1v10h-5.744c-0.372,0-0.712,0.206-0.885,0.535L10.396,22H4H2v2h1v5v23H0v2h4h7h9.994h12.012H44h7h4v-2H52z
		 M24,3h7v9h-7V3z M16.86,14H23h9h6.14l4.205,8H12.655L16.86,14z M11,24h33h6v4h-6H11H5v-4H11z M33.006,47h-0.543
		c4.443-5.421,1.496-12.799,1.462-12.881c-0.14-0.338-0.453-0.573-0.816-0.613c-0.369-0.042-0.721,0.123-0.929,0.423
		c-0.38,0.546-0.721,1.037-1.027,1.479c-0.485-1.177-1.721-2.922-4.865-3.865c-0.35-0.105-0.733-0.01-0.994,0.251
		c-1.087,1.087-1.665,2.229-1.945,3.288c-0.529-0.366-1.185-0.713-1.997-1.018c-0.254-0.095-0.537-0.084-0.781,0.034
		c-0.245,0.116-0.432,0.328-0.518,0.585C18.264,40.027,21.127,44.61,23.145,47h-2.151C19.343,47,18,48.348,18,50.005v0.99
		c0,0.354,0.072,0.689,0.185,1.005H12V30h31v22h-7.185C35.928,51.684,36,51.349,36,50.995v-0.99C36,48.348,34.657,47,33.006,47z
		 M25.888,47c-1.098-1.046-5.253-5.406-4.225-10.607c0.782,0.425,1.238,0.877,1.502,1.274c0.11,0.994,0.387,1.66,0.416,1.727
		c0.172,0.403,0.59,0.649,1.023,0.601c0.435-0.045,0.791-0.368,0.877-0.798c0.015-0.072,0.184-1.003-0.356-2.127
		c-0.033-0.944,0.179-2.2,1.176-3.414c1.634,0.61,2.722,1.575,3.089,2.755c0.201,0.645,0.149,1.207,0.022,1.585
		c-0.896,1.442-0.702,1.587-0.17,1.983c0.185,0.139,0.841,0.52,1.539-0.354c0.184-0.229,0.334-0.493,0.45-0.78
		c0.352-0.524,0.855-1.262,1.406-2.063c0.554,2.543,0.822,7.075-3.002,10.218H25.888z M5,52V30h5v22H5z M20.994,52
		C20.446,52,20,51.549,20,50.995v-0.99C20,49.451,20.446,49,20.994,49h12.012C33.554,49,34,49.451,34,50.005v0.99
		C34,51.549,33.554,52,33.006,52H20.994z M45,52V30h5v22H45z"/>
</g>
</svg>