<?xml version="1.0" encoding="iso-8859-1"?>
<!-- Uploaded to: SVG Repo, www.svgrepo.com, Generator: SVG Repo Mixer Tools -->
<svg fill="#000000" version="1.1" id="Capa_1" xmlns="http://www.w3.org/2000/svg" xmlns:xlink="http://www.w3.org/1999/xlink" 
	 viewBox="0 0 60 60" xml:space="preserve">
<g>
	<g>
		<path d="M57.889,32.938C57.955,32.804,58,32.659,58,32.5V28c0-1.928-1-3.625-2.505-4.607C55.438,17.075,50.414,12.5,43.5,12.5
			c-5.025,0-9.56,2.786-11.507,7H11c-3.859,0-7,3.14-7,7v5.349c-2.326,0.825-4,3.043-4,5.651c0,3.309,2.69,6,5.995,6H6v3
			c0,0.552,0.447,1,1,1h5c0.379,0,0.725-0.214,0.894-0.553l1.724-3.447h30.764l1.724,3.447C47.275,47.286,47.621,47.5,48,47.5h5
			c0.553,0,1-0.448,1-1v-3h0.005c3.306,0,5.995-2.691,5.995-6C60,35.674,59.178,34.039,57.889,32.938z M56,31.5h-1.995H49V28
			c0-1.93,1.57-3.5,3.5-3.5S56,26.07,56,28V31.5z M6,26.5c0-2.757,2.243-5,5-5h21.654c0.413,0,0.783-0.254,0.933-0.639
			c1.474-3.805,5.457-6.361,9.913-6.361c5.45,0,9.493,3.35,9.954,8.089C53.143,22.534,52.826,22.5,52.5,22.5
			c-3.032,0-5.5,2.467-5.5,5.5v3.5H36.747H6V26.5z M11.382,45.5H8v-2h4.382L11.382,45.5z M52,45.5h-3.382l-1-2H52V45.5z
			 M54.005,41.5H53h-7H14H7H5.995C3.792,41.5,2,39.706,2,37.5s1.792-4,3.995-4h30.752H48h6.005c2.203,0,3.995,1.794,3.995,4
			S56.208,41.5,54.005,41.5z"/>
		<rect x="9.628" y="26.5" width="2" height="2"/>
		<rect x="14" y="26.5" width="2" height="2"/>
		<rect x="18.428" y="26.5" width="2" height="2"/>
	</g>
</g>
</svg>